<svg width="14" height="5" viewBox="0 0 14 5" fill="none" xmlns="http://www.w3.org/2000/svg">
<path d="M0 1.5625C0 0.699555 0.835735 0 1.86667 0H12.1333C13.1643 0 14 0.699555 14 1.5625V3.4375C14 4.30045 13.1643 5 12.1333 5H1.86667C0.835735 5 0 4.30045 0 3.4375V1.5625Z" fill="#831212"/>
<path d="M7.46667 0.3125C7.46667 0.139911 7.63381 0 7.84 0H13.6267C13.8329 0 14 0.139911 14 0.3125V4.6875C14 4.86009 13.8329 5 13.6267 5H7.84C7.63381 5 7.46667 4.86009 7.46667 4.6875V0.3125Z" fill="#831212"/>
</svg>
